# xmcd CD database file
#
# Track frame offsets:
#	150
#	14645
#	29700
#	44885
#	60162
#	72237
#	86347
#	98930
#	112045
#	124150
#	138535
#	150362
#	164740
#	177677
#	189057
#	202712
#	214920
#	226570
#	241162
#	254920
#	269497
#	283660
#	298030
#	312230
#
# Disc length: 4309 seconds
#
# Revision: 2
# Processed by: cddbd v1.5.2PL0 Copyright (c) Steve Scherf et al.
# Submitted via: CDex 1.51
#
DISCID=6a10d318
DTITLE=Ma Rainey - Ma Rainey (1924 - 1928)
DYEAR=1992
DGENRE=Blues
TTITLE0=Jealous Hearted Blues
TTITLE1=See See Rider Blues
TTITLE2=Jelly Bean Blues
TTITLE3=Countin' the Blues
TTITLE4=Slave to the Blues
TTITLE5=Chain Gang Blues
TTITLE6=Bessemer Bound Blues
TTITLE7=Wringin' and Twistin' Blues
TTITLE8=Mountain Jack Blues
TTITLE9=Trust No Man
TTITLE10=Morning Hour Blues
TTITLE11=Ma Rainey's Black Bottom
TTITLE12=New Boweavil Blues
TTITLE13=Black Cat, Hoot Owl Blues
TTITLE14=Hear Me Talking to You
TTITLE15=Prove It on Me
TTITLE16=Victim of the Blues
TTITLE17=Sleep Talking Blues
TTITLE18=Blame It on the Blues
TTITLE19=Daddy, Goodbye Blues
TTITLE20=Sweet Rough Man
TTITLE21=Black Eye Blues
TTITLE22=Leavin' This Morning
TTITLE23=Runaway Blues
EXTD=YEAR: 1992
EXTT0=
EXTT1=
EXTT2=
EXTT3=
EXTT4=
EXTT5=
EXTT6=
EXTT7=
EXTT8=
EXTT9=
EXTT10=
EXTT11=
EXTT12=
EXTT13=
EXTT14=
EXTT15=
EXTT16=
EXTT17=
EXTT18=
EXTT19=
EXTT20=
EXTT21=
EXTT22=
EXTT23=
PLAYORDER=
